<!--?xml version="1.0" standalone="no"?-->
<svg id="svg-blob" viewBox="0 0 100 100" xmlns="http://www.w3.org/2000/svg" version="1.1">
	<defs> 
		<linearGradient id="blob-gradient" x1="0" x2="1" y1="1" y2="0">
			<stop id="stop1" stop-color="#4FFF5EFF" offset="0%"></stop>
			<stop id="stop2" stop-color="#7EABFFFF" offset="100%"></stop>
		</linearGradient>
	</defs>
<path fill="url(#blob-gradient)" d="M18.4,-30.9C23,-29.2,25.3,-22.6,26.5,-16.6C27.6,-10.6,27.6,-5.3,26.3,-0.7C25.1,3.9,22.6,7.8,21,12.9C19.4,18,18.5,24.3,15.1,27.2C11.8,30.2,5.9,29.9,-1.1,31.8C-8.1,33.7,-16.2,37.9,-21.1,35.9C-26,33.8,-27.7,25.4,-32,18.4C-36.2,11.3,-43,5.7,-41.9,0.6C-40.9,-4.5,-32.1,-8.9,-26.1,-13C-20.1,-17,-17.1,-20.7,-13.2,-22.8C-9.4,-24.9,-4.7,-25.6,1.1,-27.5C6.9,-29.4,13.8,-32.6,18.4,-30.9Z" width="100%" height="100%" transform="translate(50 50)" style="transition: all 0.3s ease 0s;" stroke-width="0"></path>
</svg>